# Apple ModelIO OBJ File: Cupboard_2
mtllib Cupboard_2.mtl
g Cupboard_Cube_Material
v -0.482882 4.70273 0.944957
v 0.490632 4.70273 -0.944957
v 0.490632 4.70273 0.944957
v 0.490632 4.75777 -1
v -0.508272 0.013405 -1
v -0.508272 4.75777 -1
v -0.482882 0.068448 -0.944957
v 0.490632 0.068448 0.944957
v 0.490632 0.068448 -0.944957
v -0.508272 0.013405 1
v -0.508272 4.75777 1
v 0.383682 2.83154 -0.944957
v -0.415638 3.71345 -0.944957
v -0.449203 2.83154 -0.944957
v 0.490632 0.013405 1
v 0.490632 0.013405 -1
v 0.444088 0.957925 0.944957
v 0.444088 1.88182 0.944957
v 0.490632 1.94666 0.944957
v -0.482882 0.068448 0.944957
v -0.482882 1.90049 -0.944957
v 0.444088 0.957925 -0.944957
v 0.444088 0.906878 -0.944957
v 0.490632 4.75777 1
v 0.4146 3.76449 0.944957
v -0.476754 2.7805 -0.944957
v -0.476754 2.83154 -0.944957
v 0.384957 3.76449 -0.944957
v -0.482882 4.70273 -0.944957
v -0.416074 3.76449 -0.944957
v 0.38479 0.906878 -0.944957
v -0.415969 0.906878 -0.944957
v -0.476754 1.88182 0.944957
v -0.476754 0.957925 0.944957
v -0.482882 1.90049 0.944957
v -0.476754 2.7805 0.944957
v -0.386158 2.7805 0.944957
v -0.482882 1.94666 0.944957
v 0.490632 1.90049 -0.944957
v -0.476754 0.957925 -0.944957
v -0.476754 0.906878 0.944957
v 0.444088 0.906878 0.944957
v -0.415969 0.906878 0.944957
v -0.476754 0.906878 -0.944957
v 0.372549 0.957925 0.944957
v -0.476754 3.76449 -0.944957
v -0.476754 3.71345 0.944957
v -0.476754 3.76449 0.944957
v 0.444088 3.76449 -0.944957
v 0.444088 3.71345 0.944957
v 0.444088 3.71345 -0.944957
v 0.383682 3.71345 -0.944957
v -0.44922 3.76449 0.944957
v -0.476754 2.83154 0.944957
v 0.444088 2.7805 0.944957
v 0.444088 2.83154 -0.944957
v 0.444088 2.83154 0.944957
v -0.476754 1.89373 0.944957
v -0.476754 1.93287 0.944957
v -0.476754 1.90049 -0.944957
v 0.444088 1.90049 -0.944957
v 0.444088 1.93287 0.944957
v -0.465944 1.88182 0.944957
v -0.476754 1.88182 -0.944957
v 0.444088 1.93287 -0.944957
v 0.417008 2.7805 0.944957
v 0.444088 1.88182 -0.944957
v 0.444088 2.7805 -0.944957
v -0.476754 1.93287 -0.944957
v -0.476754 3.71345 -0.944957
v 0.444088 3.76449 0.944957
vn 0 -1 0
vn 0 0 -1
vn 0 1 0
vn -1 0 0
vn 0 0 1
vn 1 0 0
vn 0.0001 0 1
vn -0.0004 0 1
vn -0.0002 0 1
vn -0.0004 0 -1
vn 0.0002 0 -1
vt 0.660978 0.707876
vt 0.76155 0.512633
vt 0.76155 0.707876
vt 0.779174 0.497632
vt 0.882369 0.0075
vt 0.882369 0.497632
vt 0.877123 0.512633
vt 0.776551 0.707876
vt 0.776551 0.512633
vt 0.0075 0.497632
vt 0.214117 0.0075
vt 0.214117 0.497632
vt 0.540257 0.78671
vt 0.457681 0.877818
vt 0.454213 0.78671
vt 0.344463 0.719249
vt 0.241268 0.512633
vt 0.344463 0.512633
vt 0.012309 0.604523
vt 0.012309 0.699969
vt 0.0075 0.706667
vt 0.450734 0.0075
vt 0.645977 0.0075
vt 0.645977 0.196764
vt 0.546498 0.59315
vt 0.546498 0.587877
vt 0.551306 0.50126
vt 0.234804 0.207221
vt 0.234804 0.491946
vt 0.229117 0.497632
vt 0.660978 0.497632
vt 0.764173 0.0075
vt 0.764173 0.497632
vt 0.015355 0.894464
vt 0.108072 0.991392
vt 0.0075 0.991392
vt 0.451367 0.781436
vt 0.451367 0.78671
vt 0.450734 0.690524
vt 0.540389 0.883091
vt 0.450734 0.980019
vt 0.457636 0.883091
vt 0.450734 0.50126
vt 0.540372 0.587877
vt 0.457647 0.587877
vt 0.107439 0.699969
vt 0.107439 0.604523
vt 0.108072 0.701897
vt 0.107439 0.792809
vt 0.09808 0.792809
vt 0.108072 0.706667
vt 0.435733 0.497632
vt 0.430047 0.202451
vt 0.435733 0.0075
vt 0.359464 0.512633
vt 0.364738 0.707876
vt 0.359464 0.707876
vt 0.42556 0.512633
vt 0.420286 0.707876
vt 0.420286 0.512633
vt 0.239483 0.929493
vt 0.233204 0.73425
vt 0.239483 0.73425
vt 0.888631 0.91812
vt 0.88124 0.91812
vt 0.88124 0.722877
vt 0.379738 0.512633
vt 0.385012 0.707876
vt 0.379738 0.707876
vt 0.400012 0.707876
vt 0.405286 0.512633
vt 0.405286 0.707876
vt 0.981013 0.512633
vt 0.987254 0.512633
vt 0.987254 0.707876
vt 0.989655 0.202744
vt 0.900416 0.202744
vt 0.986231 0.0075
vt 0.586581 0.50126
vt 0.591854 0.696504
vt 0.586581 0.696504
vt 0.57158 0.50126
vt 0.566307 0.696504
vt 0.566307 0.50126
vt 0.670337 0.91812
vt 0.660978 0.91812
vt 0.660978 0.722877
vt 0.989653 0.217744
vt 0.9925 0.217744
vt 0.9925 0.412988
vt 0.610898 0.696504
vt 0.606855 0.696504
vt 0.6102 0.50126
vt 0.630474 0.696504
vt 0.627129 0.50126
vt 0.632402 0.50126
vt 0.772226 0.91812
vt 0.771109 0.91812
vt 0.771109 0.722877
vt 0.123073 0.73425
vt 0.218203 0.929493
vt 0.123073 0.929493
vt 0.226268 0.719249
vt 0.123073 0.512633
vt 0.226268 0.512633
vt 0.430047 0.491946
vt 0.229117 0.0075
vt 0.430047 0.013187
vt 0.234804 0.013187
vt 0.660978 0.512633
vt 0.779174 0.0075
vt 0.877123 0.707876
vt 0.0075 0.0075
vt 0.540257 0.877818
vt 0.241268 0.719249
vt 0.0075 0.512633
vt 0.108072 0.512633
vt 0.10116 0.599249
vt 0.012309 0.599249
vt 0.015106 0.792809
vt 0.012309 0.705242
vt 0.107439 0.705242
vt 0.107439 0.701199
vt 0.019699 0.604523
vt 0.106322 0.699969
vt 0.645978 0.486259
vt 0.450734 0.201535
vt 0.450734 0.486259
vt 0.450734 0.196764
vt 0.451367 0.587877
vt 0.451367 0.59315
vt 0.451367 0.690524
vt 0.451367 0.688596
vt 0.551306 0.690524
vt 0.546498 0.690524
vt 0.546498 0.688596
vt 0.660978 0.0075
vt 0.104595 0.894464
vt 0.546498 0.69387
vt 0.551306 0.980019
vt 0.546498 0.877818
vt 0.546498 0.781436
vt 0.546498 0.883091
vt 0.546498 0.78671
vt 0.451367 0.69387
vt 0.451367 0.877818
vt 0.451367 0.883091
vt 0.107439 0.599249
vt 0.012309 0.894464
vt 0.012309 0.792809
vt 0.012309 0.798083
vt 0.012309 0.889191
vt 0.107439 0.889191
vt 0.107439 0.798083
vt 0.107439 0.894464
vt 0.364738 0.512633
vt 0.42556 0.707876
vt 0.328334 0.73425
vt 0.328334 0.929493
vt 0.322208 0.73425
vt 0.233204 0.929493
vt 0.976371 0.722877
vt 0.976371 0.91812
vt 0.385012 0.512633
vt 0.400012 0.512633
vt 0.892123 0.707876
vt 0.898437 0.512633
vt 0.892123 0.512633
vt 0.897369 0.202744
vt 0.897369 0.0075
vt 0.903478 0.0075
vt 0.9925 0.0075
vt 0.9925 0.202744
vt 0.591854 0.50126
vt 0.57158 0.696504
vt 0.756109 0.91812
vt 0.753311 0.91812
vt 0.756109 0.722877
vt 0.897369 0.412988
vt 0.90361 0.217744
vt 0.897369 0.217744
vt 0.606855 0.50126
vt 0.612128 0.50126
vt 0.612128 0.696504
vt 0.632402 0.696504
vt 0.627129 0.696504
vt 0.86624 0.722877
vt 0.86624 0.91812
vt 0.218203 0.73425
vt 0.123073 0.719249
usemtl Material
f 1/1/1 2/2/1 3/3/1
f 4/4/2 5/5/2 6/6/2
f 7/7/3 8/8/3 9/9/3
f 6/10/4 10/11/4 11/12/4
f 12/13/5 13/14/5 14/15/5
f 15/16/1 5/17/1 16/18/1
f 17/19/2 18/20/2 19/21/2
f 20/22/6 7/23/6 21/24/6
f 22/25/7 23/26/7 9/27/7
f 19/28/6 3/29/6 24/30/6
f 11/31/5 15/32/5 24/33/5
f 25/34/2 1/35/2 3/36/2
f 26/37/8 27/38/8 21/39/8
f 28/40/5 29/41/5 30/42/5
f 7/43/5 31/44/5 32/45/5
f 33/46/2 34/47/2 35/48/2
f 36/49/2 37/50/2 38/51/2
f 4/52/6 39/53/6 16/54/6
f 40/55/4 41/56/4 34/57/4
f 42/58/6 22/59/6 17/60/6
f 43/61/1 44/62/1 32/63/1
f 45/64/3 17/65/3 22/66/3
f 46/67/4 47/68/4 48/69/4
f 49/70/6 50/71/6 51/72/6
f 52/73/1 51/74/1 50/75/1
f 53/76/3 25/77/3 30/78/3
f 27/79/4 36/80/4 54/81/4
f 55/82/6 56/83/6 57/84/6
f 37/85/1 36/86/1 26/87/1
f 14/88/3 27/89/3 54/90/3
f 58/91/4 59/92/4 60/93/4
f 61/94/6 62/95/6 18/96/6
f 63/97/1 33/98/1 64/99/1
f 65/100/3 59/101/3 62/102/3
f 11/103/3 4/104/3 6/105/3
f 4/52/6 3/29/6 2/106/6
f 15/107/6 9/108/6 8/109/6
f 1/1/1 29/110/1 2/2/1
f 4/4/2 16/111/2 5/5/2
f 7/7/3 20/112/3 8/8/3
f 6/10/4 5/113/4 10/11/4
f 12/13/5 52/114/5 13/14/5
f 15/16/1 10/115/1 5/17/1
f 8/116/2 20/117/2 43/118/2
f 8/116/2 43/118/2 42/119/2
f 37/50/2 66/120/2 62/121/2
f 66/120/2 19/21/2 62/121/2
f 35/48/2 38/51/2 59/122/2
f 38/51/2 37/50/2 62/121/2
f 59/122/2 38/51/2 62/121/2
f 59/122/2 58/123/2 35/48/2
f 19/21/2 8/116/2 17/19/2
f 8/116/2 42/119/2 17/19/2
f 17/19/2 45/124/2 18/20/2
f 45/124/2 63/125/2 18/20/2
f 18/20/2 62/121/2 19/21/2
f 21/24/6 29/126/6 38/127/6
f 29/126/6 1/128/6 38/127/6
f 38/127/6 35/129/6 21/24/6
f 35/129/6 20/22/6 21/24/6
f 7/43/5 32/45/5 44/130/5
f 7/43/9 44/130/9 40/131/9
f 60/132/5 21/39/5 64/133/5
f 21/39/5 7/43/5 40/131/5
f 64/133/5 21/39/5 40/131/5
f 39/134/5 61/135/5 67/136/5
f 67/136/5 64/133/5 40/131/5
f 67/136/5 40/131/5 22/25/5
f 9/27/5 39/134/5 22/25/5
f 39/134/5 67/136/5 22/25/5
f 23/26/5 31/44/5 9/27/5
f 24/30/6 15/107/6 19/28/6
f 15/107/6 8/109/6 19/28/6
f 11/31/5 10/137/5 15/32/5
f 25/34/2 53/138/2 1/35/2
f 61/135/5 39/134/5 65/139/5
f 39/134/5 2/140/5 51/141/5
f 65/139/5 39/134/5 68/142/5
f 2/140/5 28/40/5 49/143/5
f 51/141/5 52/114/5 12/13/5
f 2/140/5 49/143/5 51/141/5
f 68/142/7 39/134/7 56/144/7
f 21/39/5 60/132/5 69/145/5
f 51/141/5 12/13/5 56/144/5
f 51/141/5 56/144/5 39/134/5
f 29/41/5 21/39/5 70/146/5
f 21/39/5 69/145/5 26/37/5
f 46/147/5 30/42/5 29/41/5
f 14/15/5 13/14/5 70/146/5
f 70/146/5 46/147/5 29/41/5
f 27/38/5 14/15/5 70/146/5
f 65/139/5 68/142/5 26/37/5
f 27/38/5 70/146/5 21/39/5
f 69/145/5 65/139/5 26/37/5
f 28/40/5 2/140/5 29/41/5
f 7/43/5 9/27/5 31/44/5
f 63/125/2 45/124/2 34/47/2
f 41/148/2 43/118/2 20/117/2
f 33/46/2 63/125/2 34/47/2
f 34/47/10 41/148/10 20/117/10
f 20/117/2 35/48/2 34/47/2
f 35/48/2 58/123/2 33/46/2
f 71/149/2 25/34/2 3/36/2
f 19/21/2 66/120/2 55/150/2
f 19/21/2 55/150/2 57/151/2
f 71/149/2 3/36/2 50/152/2
f 3/36/2 19/21/2 50/152/2
f 50/152/2 19/21/2 57/151/2
f 47/153/2 50/152/2 57/151/2
f 47/153/2 57/151/2 54/154/2
f 1/35/2 53/138/2 48/155/2
f 47/153/2 54/154/2 38/51/2
f 54/154/2 36/49/2 38/51/2
f 47/153/2 38/51/2 1/35/2
f 1/35/11 48/155/11 47/153/11
f 2/106/6 39/53/6 4/52/6
f 39/53/6 9/108/6 16/54/6
f 40/55/4 44/156/4 41/56/4
f 42/58/6 23/157/6 22/59/6
f 23/158/1 42/159/1 31/160/1
f 42/159/1 43/61/1 31/160/1
f 43/61/1 41/161/1 44/62/1
f 32/63/1 31/160/1 43/61/1
f 22/66/3 40/162/3 45/64/3
f 40/162/3 34/163/3 45/64/3
f 46/67/4 70/164/4 47/68/4
f 49/70/6 71/165/6 50/71/6
f 50/75/1 47/166/1 13/167/1
f 47/166/1 70/168/1 13/167/1
f 13/167/1 52/73/1 50/75/1
f 71/169/3 49/170/3 25/77/3
f 49/170/3 28/171/3 25/77/3
f 30/78/3 46/172/3 53/76/3
f 46/172/3 48/173/3 53/76/3
f 28/171/3 30/78/3 25/77/3
f 27/79/4 26/174/4 36/80/4
f 55/82/6 68/175/6 56/83/6
f 55/176/1 66/177/1 68/178/1
f 66/177/1 37/85/1 68/178/1
f 68/178/1 37/85/1 26/87/1
f 54/90/3 57/179/3 12/180/3
f 57/179/3 56/181/3 12/180/3
f 12/180/3 14/88/3 54/90/3
f 69/182/4 60/93/4 59/92/4
f 60/93/4 64/183/4 58/91/4
f 64/183/4 33/184/4 58/91/4
f 18/96/6 67/185/6 61/94/6
f 61/94/6 65/186/6 62/95/6
f 64/99/1 67/187/1 63/97/1
f 67/187/1 18/188/1 63/97/1
f 65/100/3 69/189/3 59/101/3
f 11/103/3 24/190/3 4/104/3
f 4/52/6 24/30/6 3/29/6
f 15/107/6 16/54/6 9/108/6
s off
